<svg  viewBox="0 0 182 181" fill="none" xmlns="http://www.w3.org/2000/svg">
    <path d="M141.8 126.2C139.3 126.2 137.3 124.2 137.3 121.7C137.3 120.2 138.1 118.8 139.2 118L136.4 113.1C135.8 113.4 135.2 113.5 134.5 113.5C132 113.5 130 111.5 130 109C130 107.5 130.7 106.2 131.9 105.4L129.2 100.6C128.6 100.9 128 101 127.3 101C124.8 101 122.8 98.9999 122.8 96.4999C122.8 94.9999 123.6 93.6999 124.7 92.8999L121.9 87.9999C121.3 88.2999 120.7 88.3999 120 88.3999C117.5 88.3999 115.5 86.3999 115.5 83.8999C115.5 82.3999 116.3 81.0999 117.4 80.1999L114.6 75.3999C114 75.6999 113.4 75.7999 112.7 75.7999C110.2 75.7999 108.2 73.7999 108.2 71.2999C108.2 69.7999 109 68.4999 110.1 67.6999L107.3 62.7999C106.7 63.0999 106.1 63.1999 105.5 63.1999C103 63.1999 101 61.1999 101 58.6999C101 57.1999 101.7 55.8999 102.8 55.0999L100 50.1999C99.4 50.4999 98.8 50.5999 98.1 50.5999C95.6 50.5999 93.6 48.5999 93.6 46.0999C93.6 44.5999 94.4 43.2999 95.5 42.4999L90.2 33.3999L84.9 42.5999C86 43.3999 86.7 44.6999 86.7 46.1999C86.7 48.6999 84.7 50.6999 82.2 50.6999C81.6 50.6999 81 50.5999 80.4 50.2999L77.6 55.1999C78.7 55.9999 79.4 57.2999 79.4 58.6999C79.4 61.1999 77.4 63.1999 74.9 63.1999C74.3 63.1999 73.7 63.0999 73.2 62.8999L70.4 67.7999C71.5 68.5999 72.2 69.8999 72.2 71.3999C72.2 73.8999 70.2 75.8999 67.7 75.8999C67.1 75.8999 66.5 75.7999 65.9 75.4999L63.1 80.2999C64.2 81.0999 64.9 82.3999 64.9 83.8999C64.9 86.3999 62.9 88.3999 60.4 88.3999C59.8 88.3999 59.2 88.2999 58.6 87.9999L55.7 92.8999C56.8 93.6999 57.5 94.9999 57.5 96.4999C57.5 98.9999 55.5 101 53 101C52.4 101 51.8 100.9 51.2 100.6L48.4 105.4C49.5 106.2 50.2 107.5 50.2 108.9C50.2 111.4 48.2 113.4 45.7 113.4C45.1 113.4 44.5 113.3 44 113.1L41.2 118C42.3 118.8 43 120.1 43 121.6C43 124.1 41 126.1 38.5 126.1C37.9 126.1 37.3 126 36.7 125.7L31.5 134.7H42C42.2 132.5 44.1 130.7 46.4 130.7C48.7 130.7 50.6 132.4 50.8 134.7H56.4C56.6 132.5 58.5 130.7 60.8 130.7C63.1 130.7 65 132.4 65.2 134.7H70.9C71.1 132.5 73 130.7 75.3 130.7C77.6 130.7 79.5 132.4 79.7 134.7H85.3C85.5 132.5 87.4 130.7 89.7 130.7C92 130.7 93.9 132.4 94.1 134.7H99.7C99.9 132.5 101.8 130.7 104.1 130.7C106.4 130.7 108.3 132.4 108.5 134.7H114.1C114.3 132.5 116.2 130.7 118.5 130.7C120.8 130.7 122.7 132.4 122.9 134.7H128.6C128.8 132.5 130.7 130.7 133 130.7C135.3 130.7 137.2 132.4 137.4 134.7H148L142.8 125.6C143.1 126.1 142.4 126.2 141.8 126.2ZM105.8 78.8999L109.8 85.7999H101.9L105.8 78.8999ZM98.2 65.6999L102 72.2999L94.2 85.6999H86.5L98.2 65.6999ZM90.5 52.3999L94.3 58.9999L79 85.6999H71.2L90.5 52.3999ZM56 125.4H48.1L67.4 92.2999H105.9L102 98.9999H71.2L56 125.4ZM86.5 125.4H79L82.7 118.9H90.3L86.5 125.4ZM78.9 112.3L71.4 125.4H63.6L75 105.5H98.1L94.2 112.3H78.9ZM101.9 125.4H94.2L113.5 92.2999H113.7L117.4 98.6999L101.9 125.4ZM117.2 125.4H109.5L121.1 105.2L124.9 111.8L117.2 125.4ZM124.8 125.4L128.8 118.5L132.8 125.4H124.8Z" fill="#FFE57A"/>
    <path d="M90.4 2.19995C4.70004 53.9 2.50005 142 2.70005 155.2C45.5 180.9 90.4 178.9 90.4 178.9C90.4 178.9 136.5 180.9 179.3 155.2C180.2 141.8 176.5 53.2 90.4 2.19995ZM150.8 146.1C146.4 148.2 141.9 147.8 127.4 143.9C112.9 140 90.5 140.1 90.5 140.1C90.5 140.1 69.3 139.8 54.7 143.6C40.2 147.5 35.6 147.9 31.2 145.8C26.8 143.7 23.1 139.3 24 129.6C24.9 119.9 38.1 60.1999 90.5 26.1C142.5 57.9 157.5 121 158.4 130.7C159.2 140.3 155.2 144 150.8 146.1Z" fill="#FFE57A"/>
    <path d="M169.2 92.1C162.6 74.8 153.5 58.8 142.2 44.6C128.4 27.3 111.3 12.5 91.4 0.6L90.4 0L89.4 0.6C1.49996 53.6 0.699974 145 0.899974 155.2V156.2L1.79997 156.7C38.9 179 77.3 180.7 88.1 180.7C89.4 180.7 90.2 180.7 90.4 180.7C90.7 180.7 91.5 180.7 92.8 180.7C103.9 180.7 143.2 179 180.3 156.7L181.1 156.2L181.2 155.2C181.2 155 182.9 127.6 169.2 92.1ZM179.4 155.2C136.6 180.9 90.5 178.9 90.5 178.9C90.5 178.9 45.6 180.9 2.79997 155.2C2.59997 142 4.79997 53.9 90.5 2.2C176.5 53.2 180.2 141.8 179.4 155.2Z" fill="#00784B"/>
    <path d="M99.8999 15.1L94.3999 19.4L95.2999 20L96.5999 19L98.6999 20.4L98.2999 22L99.3999 22.7L101.2 15.9L99.8999 15.1ZM98.9999 19.4L97.3999 18.3L99.7999 16.4L98.9999 19.4Z" fill="black"/>
    <path d="M108.2 21.1L105.4 24.7999C105.5 24.2999 105.5 24 105.5 24L106.1 19.5L105.1 18.7L101 24L101.8 24.6L104.8 20.7999C104.8 20.9999 104.8 21.1 104.8 21.2C104.8 21.4 104.8 21.5 104.8 21.6L104.2 26.5L105.1 27.2L109.2 21.9L108.2 21.1Z" fill="black"/>
    <path d="M111.3 23.6L106.9 28.6L108.5 30C109.3 30.7 110.1 31 110.9 30.9C111.7 30.8 112.5 30.4 113.1 29.7C113.7 29 114 28.2 114.1 27.4C114.1 26.6 113.8 25.8 113.1 25.2L111.3 23.6ZM112.3 28.8C111.8 29.4 111.2 29.7 110.7 29.8C110.2 29.9 109.7 29.7 109.3 29.4L108.6 28.7L111.7 25.2L112.6 26C113 26.4 113.2 26.8 113.1 27.4C112.9 27.8 112.7 28.4 112.3 28.8Z" fill="black"/>
    <path d="M124.9 38.3L125.6 37.6L122.3 34.1L121.6 34.8L122.8 36.1L118.7 39.9L119.6 40.8L123.7 37L124.9 38.3Z" fill="black"/>
    <path d="M125 42.5999L126.7 44.5L127.4 43.7999L125.8 42L127.1 40.7999L129.1 43.0999L129.9 42.5L127.1 39.2L122.1 43.5999L124.9 46.9L125.7 46.2L123.6 43.7999L125 42.5999Z" fill="black"/>
    <path d="M132.3 45.4L131.5 44.4L126.3 48.6L128.9 51.8L129.8 51.1L128 48.9L132.3 45.4Z" fill="black"/>
    <path d="M134.7 54.7L135.5 54.1L134 52.1L135.4 51L137.3 53.5L138.1 52.9L135.5 49.5L130.2 53.5L132.8 56.9L133.6 56.3L131.7 53.8L133.2 52.7L134.7 54.7Z" fill="black"/>
    <path d="M137.1 60.7C136.7 60.7 136.4 60.5 136.2 60.2C135.9 59.8 135.9 59.4 136.1 59C136.3 58.5 136.7 58.0999 137.4 57.5999C138.1 57.0999 138.6 56.9 139.1 56.9C139.6 56.9 140 57 140.2 57.4C140.6 58 140.4 58.6 139.7 59.4L140.4 60.2C141 59.7 141.3 59.1 141.4 58.5C141.5 57.9 141.3 57.2999 141 56.7999C140.5 56.0999 139.9 55.7 139.1 55.7C138.3 55.7 137.5 55.9 136.7 56.5C136.2 56.9 135.8 57.3 135.5 57.7C135.2 58.2 135 58.5999 135 59.0999C135 59.5999 135.1 60.0999 135.5 60.5999C135.9 61.1999 136.4 61.5 137 61.7C137.6 61.8 138.2 61.7 138.8 61.4L138.3 60.4C137.8 60.7 137.4 60.8 137.1 60.7Z" fill="black"/>
    <path d="M145.4 65.3C145.7 64.5 145.6 63.8 145.1 63C144.6 62.3 144 61.9 143.2 61.8C142.4 61.7 141.5 61.9 140.7 62.4C139.9 62.9 139.3 63.6 139 64.3C138.7 65.1 138.8 65.8 139.3 66.6C139.8 67.3 140.4 67.7 141.2 67.8C142 67.9 142.9 67.7 143.7 67.1C144.6 66.7 145.1 66 145.4 65.3ZM141.2 66.8C140.7 66.7 140.4 66.5 140.2 66.2C139.9 65.8 139.9 65.4 140.1 64.9C140.3 64.5 140.7 64 141.4 63.6C142.8 62.7 143.8 62.7 144.3 63.6C144.6 64 144.6 64.5 144.4 64.9C144.2 65.3 143.7 65.8 143.1 66.2C142.3 66.6 141.6 66.8 141.2 66.8Z" fill="black"/>
    <path d="M150.2 71.7L145.8 72.6L148.8 69.3L147.9 67.7L142.2 71L142.6 71.8L147.7 68.9L143.6 73.4L143.9 74L149.8 72.7L144.8 75.6L145.4 76.6L151.2 73.3L150.2 71.7Z" fill="black"/>
    <path d="M154.7 80.1L150.3 80.8L153.5 77.6L152.6 75.9L146.7 79L147.2 79.9L152.3 77.2L148 81.5L148.3 82.1L154.3 81L149.1 83.7L149.7 84.8L155.6 81.7L154.7 80.1Z" fill="black"/>
    <path d="M158.8 88.6L158.4 87.7L154.5 89.5C154 89.7 153.6 89.8 153.3 89.7C153 89.6 152.8 89.3 152.7 89C152.6 88.7 152.5 88.4 152.6 88.1C152.7 87.8 153 87.5 153.5 87.3L157.4 85.5L156.9 84.4L152.9 86.2C152.4 86.4 152.1 86.7 151.8 86.9C151.6 87.2 151.4 87.5 151.4 87.9C151.4 88.3 151.5 88.7 151.7 89.2C151.9 89.7 152.2 90.1 152.6 90.3C153 90.5 153.3 90.7 153.6 90.6C153.9 90.6 154.4 90.5 154.9 90.2L158.8 88.6Z" fill="black"/>
    <path d="M161.5 95L157.2 96.7C157.5 96.3 157.7 96.1 157.7 96L160.5 92.4L160 91.2L153.8 93.7L154.2 94.6L158.7 92.8C158.6 92.9 158.5 93 158.5 93.1C158.4 93.2 158.3 93.3 158.3 93.4L155.3 97.3L155.7 98.4L161.9 95.9L161.5 95Z" fill="black"/>
    <path d="M162.831 98.7515L156.595 100.912L156.988 102.046L163.224 99.8854L162.831 98.7515Z" fill="black"/>
    <path d="M161.2 108.6L161 107.5C160.6 107.6 160.3 107.5 159.9 107.4C159.6 107.2 159.3 107 159.2 106.7C159.1 106.3 159.2 105.9 159.5 105.5C159.8 105.1 160.4 104.8 161.1 104.6C161.9 104.4 162.5 104.3 162.9 104.4C163.4 104.5 163.7 104.8 163.8 105.2C164 105.9 163.6 106.4 162.7 106.9L163.1 107.9C163.8 107.6 164.3 107.1 164.5 106.6C164.8 106.1 164.8 105.5 164.6 104.9C164.4 104.1 163.9 103.5 163.1 103.3C162.4 103 161.5 103 160.5 103.3C159.9 103.5 159.4 103.7 158.9 104.1C158.5 104.4 158.1 104.8 158 105.3C157.8 105.7 157.8 106.3 158 106.8C158.2 107.5 158.6 108 159.1 108.3C160 108.6 160.6 108.7 161.2 108.6Z" fill="black"/>
    <path d="M166.5 111.2L159.5 110.6L159.7 111.6L161.4 111.7L162 114.2L160.6 115.1L160.9 116.3L166.9 112.6L166.5 111.2ZM162.9 113.6L162.5 111.7L165.6 112L162.9 113.6Z" fill="black"/>
    <path d="M167.5 120.7L168.5 120.5L167.5 115.8L166.5 116L166.9 117.7L161.4 118.8L161.6 120L167.1 119L167.5 120.7Z" fill="black"/>
    <path d="M168.75 122.682L162.239 123.761L162.435 124.945L168.946 123.866L168.75 122.682Z" fill="black"/>
    <path d="M164.3 131.9C165 132.3 165.9 132.5 166.9 132.3C167.9 132.2 168.6 131.8 169.2 131.2C169.8 130.6 170 129.9 169.9 129C169.8 128.2 169.4 127.5 168.7 127.1C168 126.7 167.1 126.5 166.2 126.6C165.2 126.7 164.5 127.1 163.9 127.7C163.3 128.3 163.1 129 163.2 129.9C163.2 130.9 163.6 131.5 164.3 131.9ZM164.5 128.7C164.9 128.4 165.5 128.2 166.3 128.1C167.9 127.9 168.8 128.3 169 129.3C169.1 129.8 168.9 130.2 168.5 130.5C168.1 130.8 167.5 131 166.8 131.1C165.9 131.2 165.2 131.2 164.8 130.9C164.4 130.7 164.2 130.3 164.1 129.9C164 129.4 164.2 129 164.5 128.7Z" fill="black"/>
    <path d="M170.9 138.6L166.3 139.1C166.7 138.8 166.9 138.6 167 138.6L170.7 135.9L170.6 134.6L164 135.3L164.1 136.3L168.9 135.8C168.8 135.9 168.7 136 168.6 136C168.5 136.1 168.4 136.2 168.3 136.2L164.3 139.1L164.4 140.3L171 139.6L170.9 138.6Z" fill="black"/>
    <path d="M171.5 144.4C171.5 143.7 171.2 143.2 170.8 142.7C170.4 142.3 169.9 142.1 169.3 142.1C169 142.1 168.7 142.2 168.5 142.3C168.2 142.4 168.1 142.6 167.9 142.8C167.8 143 167.7 143.3 167.6 143.8L167.4 145.1C167.3 145.4 167.2 145.7 167.1 145.8C167 145.9 166.8 146 166.6 146C166.4 146 166.1 145.9 165.9 145.7C165.7 145.5 165.6 145.2 165.6 144.7C165.5 143.8 165.8 143.2 166.5 143L166.2 141.9C165.6 142.1 165.2 142.5 165 143C164.8 143.5 164.7 144.1 164.7 144.8C164.8 145.6 165 146.2 165.4 146.7C165.8 147.2 166.3 147.4 167 147.3C167.4 147.3 167.8 147.1 168.1 146.9C168.4 146.6 168.6 146.2 168.8 145.5L169 144.4C169.1 143.8 169.4 143.4 169.7 143.4C169.9 143.4 170.1 143.5 170.3 143.7C170.5 143.9 170.6 144.2 170.6 144.5C170.6 145.1 170.4 145.6 169.9 145.8L170.3 146.9C170.7 146.7 171.1 146.4 171.3 146C171.4 145.5 171.5 145 171.5 144.4Z" fill="black"/>
    <path d="M15.4 142.7L15.2 143.8C15.6 143.8 15.9 144 16.2 144.3C16.5 144.6 16.6 144.9 16.6 145.2C16.6 145.6 16.4 146 15.9 146.2C15.5 146.5 14.9 146.6 14.1 146.5C13.3 146.5 12.7 146.3 12.3 146.1C11.9 145.8 11.7 145.5 11.7 145C11.7 144.3 12.2 143.9 13.3 143.7L13.2 142.6C12.4 142.7 11.8 142.9 11.4 143.4C11 143.8 10.8 144.4 10.7 145C10.7 145.8 11 146.5 11.6 147C12.2 147.5 13 147.8 14 147.8C14.6 147.8 15.2 147.7 15.7 147.6C16.2 147.4 16.7 147.1 17 146.8C17.3 146.4 17.5 145.9 17.5 145.3C17.5 144.6 17.3 144 16.9 143.5C16.6 143.1 16 142.8 15.4 142.7Z" fill="black"/>
    <path d="M11.3 137.6L14 137.8L13.8 140.3L11.1 140.1L11 141.3L17.6 141.8L17.7 140.6L14.8 140.4L15 137.9L17.9 138.1L18 136.9L11.4 136.4L11.3 137.6Z" fill="black"/>
    <path d="M15.4999 129.8C14.4999 129.7 13.6999 129.8 12.9999 130.3C12.2999 130.7 11.8999 131.4 11.7999 132.2C11.6999 133.1 11.8999 133.8 12.4999 134.4C13.0999 135 13.8999 135.4 14.7999 135.5C15.7999 135.6 16.5999 135.5 17.2999 135.1C17.9999 134.7 18.3999 134 18.4999 133.2C18.5999 132.3 18.3999 131.6 17.7999 131C17.2999 130.2 16.4999 129.9 15.4999 129.8ZM17.5999 132.9C17.4999 133.4 17.2999 133.7 16.8999 133.9C16.4999 134.1 15.7999 134.2 14.9999 134.1C13.3999 133.9 12.5999 133.3 12.6999 132.3C12.7999 131.8 12.9999 131.4 13.4999 131.2C13.9999 131 14.5999 131 15.2999 131C16.1999 131.1 16.8999 131.3 17.1999 131.7C17.4999 132.1 17.5999 132.5 17.5999 132.9Z" fill="black"/>
    <path d="M12.9999 123.9L17.5999 124.6C17.0999 124.8 16.8999 124.9 16.7999 124.9L12.5999 126.6L12.3999 127.9L18.9999 129L19.1999 128L14.3999 127.2C14.5999 127.1 14.6999 127.1 14.6999 127.1C14.8999 127 14.9999 127 14.9999 127L19.5999 125.2L19.7999 124.1L13.1999 123L12.9999 123.9Z" fill="black"/>
    <path d="M17.1999 119.4L18.0999 119.6L18.3999 118.3C18.8999 118.4 19.1999 118.6 19.3999 118.9C19.5999 119.2 19.6999 119.6 19.5999 120C19.3999 121 18.4999 121.4 16.7999 121C15.9999 120.8 15.4999 120.6 15.1999 120.2C14.8999 119.8 14.7999 119.4 14.8999 119C14.9999 118.3 15.4999 117.9 16.3999 117.9V116.8C15.7999 116.8 15.2999 117 14.7999 117.3C14.2999 117.6 13.9999 118.1 13.8999 118.8C13.6999 119.7 13.8999 120.4 14.3999 121.1C14.8999 121.7 15.6999 122.1 16.5999 122.3C17.4999 122.5 18.2999 122.4 19.0999 122.1C19.8999 121.8 20.2999 121.2 20.4999 120.3C20.6999 119.5 20.4999 118.9 19.8999 118.3L20.8999 118.1L20.9999 117.6L17.6999 116.9L17.1999 119.4Z" fill="black"/>
    <path d="M22.8999 111.8C22.8999 112 22.7999 112.2 22.7999 112.3C22.7999 112.5 22.6999 112.6 22.5999 112.7C22.4999 112.8 22.3999 112.8 22.2999 112.8C22.1999 112.8 22.1999 112.7 22.0999 112.5C21.6999 111.4 20.8999 110.7 19.4999 110.4C18.8999 110.2 18.2999 110.2 17.6999 110.3C17.1999 110.4 16.6999 110.6 16.2999 110.9C15.8999 111.2 15.5999 111.7 15.4999 112.3C15.2999 113.2 15.3999 113.9 15.8999 114.6C16.3999 115.2 17.0999 115.7 18.0999 115.9C19.0999 116.1 19.8999 116.1 20.6999 115.8C21.4999 115.5 21.8999 114.9 22.1999 114C22.1999 113.9 22.1999 113.8 22.2999 113.6C23.0999 113.8 23.6999 113.4 23.8999 112.5C23.8999 112.4 23.9999 112.2 23.9999 111.8L22.9999 111.6C22.8999 111.6 22.8999 111.7 22.8999 111.8ZM21.0999 113.7C20.8999 114.7 19.9999 115 18.3999 114.6C16.7999 114.2 16.0999 113.5 16.2999 112.5C16.3999 112.1 16.6999 111.8 17.0999 111.6C17.4999 111.4 18.1999 111.4 18.9999 111.7C20.6999 112 21.3999 112.7 21.0999 113.7Z" fill="black"/>
    <path d="M16.9047 107.022L16.5759 108.176L22.9232 109.985L23.252 108.831L16.9047 107.022Z" fill="black"/>
    <path d="M18.5999 101.5L22.9999 102.9C22.4999 103 22.1999 103.1 22.1999 103.1L17.7999 104.1L17.3999 105.4L23.6999 107.4L23.9999 106.5L19.3999 105C19.5999 105 19.6999 104.9 19.6999 104.9C19.8999 104.9 19.9999 104.8 20.0999 104.8L24.8999 103.7L25.2999 102.6L18.9999 100.6L18.5999 101.5Z" fill="black"/>
    <path d="M23.3999 97.7L24.2999 98L24.7999 96.7C25.1999 96.9 25.4999 97.1 25.6999 97.5C25.8999 97.8 25.8999 98.2 25.6999 98.6C25.2999 99.6 24.3999 99.8 22.7999 99.2C22.0999 98.9 21.5999 98.6 21.2999 98.2C20.9999 97.8 20.9999 97.4 21.1999 96.9C21.4999 96.2 21.9999 95.9 22.7999 96L22.9999 95C22.3999 94.9 21.8999 95 21.3999 95.3C20.8999 95.6 20.4999 96 20.2999 96.7C19.9999 97.5 20.0999 98.3 20.4999 99C20.9999 99.7 21.5999 100.2 22.4999 100.5C23.3999 100.8 24.1999 100.9 24.9999 100.7C25.7999 100.5 26.3999 100 26.6999 99.2C26.9999 98.4 26.8999 97.8 26.3999 97.2H27.3999L27.5999 96.7L24.3999 95.5L23.3999 97.7Z" fill="black"/>
    <path d="M29.4999 88.9C29.2999 88.7 28.8999 88.4 28.3999 88.2L24.4999 86.5L24.0999 87.4L27.9999 89.1C28.4999 89.3 28.7999 89.6 28.8999 89.9C28.9999 90.2 28.9999 90.5 28.7999 90.8C28.6999 91.1 28.4999 91.3 28.1999 91.5C27.8999 91.7 27.4999 91.6 26.9999 91.4L23.0999 89.7L22.5999 90.8L26.5999 92.5C27.0999 92.7 27.4999 92.8 27.8999 92.8C28.2999 92.8 28.5999 92.7 28.8999 92.4C29.1999 92.2 29.4999 91.8 29.6999 91.3C29.8999 90.8 29.9999 90.3 29.8999 89.9C29.8999 89.5 29.6999 89.1 29.4999 88.9Z" fill="black"/>
    <path d="M26.8999 81.3L31.0999 83.3C30.5999 83.3 30.2999 83.4 30.2999 83.4L25.7999 83.8L25.0999 85L31.0999 87.9L31.4999 87L27.0999 84.9C27.2999 84.9 27.3999 84.9 27.4999 84.9C27.6999 84.9 27.7999 84.9 27.8999 84.9L32.7999 84.5L33.2999 83.5L27.2999 80.6L26.8999 81.3Z" fill="black"/>
    <path d="M28.6237 77.857L28.0747 78.9241L33.9434 81.9436L34.4924 80.8765L28.6237 77.857Z" fill="black"/>
    <path d="M31.0999 73.1999L34.8999 76.9999L29.6999 75.8999L29.0999 76.9999L35.8999 78.3999L36.3999 77.2999L31.5999 72.2999L31.0999 73.1999Z" fill="black"/>
    <path d="M37.5999 73.2L35.9999 72.3L37.1999 70.2L36.3999 69.7L35.0999 71.8L33.5999 70.9L35.1999 68.2L34.2999 67.7L32.0999 71.4L37.8999 74.8L40.0999 71.1L39.1999 70.5L37.5999 73.2Z" fill="black"/>
    <path d="M39.5 63.1999C39 62.8999 38.5 62.7999 38 62.8999C37.5 62.9999 37 63.3999 36.6 64.0999L35 66.5999L40.6 70.1999L41.2 69.1999L38.9 67.6999L39.8 66.2999L42.7 66.8999L43.4 65.7999L40.3 65.1999C40.5 64.2999 40.2 63.6999 39.5 63.1999ZM39 65.8999L38.2 67.1999L36.5 66.0999L37.4 64.7999C37.6 64.4999 37.8 64.2999 38.1 64.1999C38.4 64.0999 38.6 64.1999 38.9 64.2999C39.2 64.4999 39.3 64.6999 39.4 64.9999C39.3 65.1999 39.2 65.4999 39 65.8999Z" fill="black"/>
    <path d="M45.2 59.8C44.9 59.6 44.5 59.5 44.1 59.5C43.7 59.5 43.2 59.7 42.7 60.2L41.8001 61C41.3001 61.4 40.9 61.5 40.6 61.3C40.4 61.2 40.3001 61 40.3001 60.7C40.3001 60.4 40.4 60.2 40.6 59.9C41 59.4 41.4 59.2 41.9 59.3L42.3001 58.2C41.9001 58 41.4 58.1 40.9 58.3C40.4 58.5 40 58.9 39.7 59.3C39.3 59.9 39.1 60.4 39.2 61C39.2 61.6 39.5 62 40 62.4C40.2 62.6 40.5001 62.7 40.8001 62.7C41.1001 62.7 41.3 62.7 41.6 62.6C41.8 62.5 42.1 62.3 42.5 62L43.5 61.1C43.8 60.9 44 60.8 44.2 60.8C44.4 60.8 44.6 60.9 44.7 61C44.9 61.1 45 61.4 45 61.6C45 61.9 44.9 62.2 44.6 62.5C44.1 63.3 43.5 63.5 42.9 63.3L42.4 64.4C43 64.6 43.5 64.6 44 64.3C44.5 64.1 45.0001 63.7 45.3001 63.1C45.7001 62.5 46 61.8 45.9 61.2C46 60.6 45.7 60.1 45.2 59.8Z" fill="black"/>
    <path d="M42.8934 55.1254L42.1816 56.0916L47.4953 60.006L48.207 59.0399L42.8934 55.1254Z" fill="black"/>
    <path d="M47.1999 51.2L46.2999 50.5L43.3999 54.4L44.1999 55L45.2999 53.6L49.6999 57L50.4999 56L46.0999 52.6L47.1999 51.2Z" fill="black"/>
    <path d="M50.3 45.7L49.6 46.5999L50.7 49.5L47.6 49L46.7 50.0999L51.1 50.7999L53.2 52.5999L54.1 51.5999L51.9 49.7999L50.3 45.7Z" fill="black"/>
    <path d="M57.7 41.5999C57 40.8999 56.2 40.6 55.4 40.5C54.6 40.4 53.9 40.7 53.3 41.4C52.7 42 52.5 42.7999 52.6 43.5999C52.7 44.3999 53.2 45.2 53.9 45.8C54.6 46.5 55.4 46.8 56.2 46.9C57 47 57.7 46.7 58.3 46C58.9 45.4 59.1 44.6 59 43.8C58.9 43 58.5 42.2999 57.7 41.5999ZM57.7 45.3C57.4 45.7 57 45.8 56.5 45.7C56 45.6 55.5 45.3 54.9 44.8C53.7 43.7 53.4 42.8 54.1 42C54.4 41.6 54.9 41.4999 55.4 41.5999C55.9 41.6999 56.4 42 57 42.5C57.7 43.1 58.1 43.6999 58.1 44.0999C58.1 44.5999 57.9 45 57.7 45.3Z" fill="black"/>
    <path d="M61.5 38.2L60.7 37.5L59.1 39.2L57.8 38L59.9 35.8L59.1 35.1L56.2 38.2L61 42.8L61.9 41.9L59.8 39.9L61.5 38.2Z" fill="black"/>
    <path d="M66.7999 32.2999C66.7999 31.6999 66.5999 31.2999 66.1999 30.7999C65.7999 30.3999 65.3999 30.2 64.7999 30.2C64.2999 30.2 63.6999 30.4 63.0999 31L61.0999 32.9L65.6999 37.7L66.5999 36.9L64.7999 35L65.9999 33.9C66.4999 33.3 66.7999 32.7999 66.7999 32.2999ZM65.1999 33.2L64.1999 34.2L62.7999 32.7999L63.6999 31.9C63.9999 31.6 64.2999 31.4 64.5999 31.4C64.8999 31.4 65.0999 31.5 65.2999 31.7C65.4999 31.9 65.5999 32.2 65.5999 32.4C65.5999 32.7 65.3999 32.9 65.1999 33.2Z" fill="black"/>
    <path d="M69.9 26.1C69.1 26 68.4 26.2 67.7 26.7C67.1 27.3 66.8 27.9999 66.8 28.7999C66.8 29.5999 67.2 30.4 67.8 31.1C68.5 31.8 69.2 32.3 70 32.4C70.8 32.6 71.5 32.3 72.2 31.8C72.8 31.2 73.1001 30.5 73.1001 29.7C73.1001 28.9 72.7 28.1 72 27.3C71.4 26.6999 70.7 26.3 69.9 26.1ZM71.6001 31.2C71.2001 31.5 70.8 31.6 70.4 31.5C69.9 31.4 69.4 31 68.9 30.4C67.8 29.2 67.6 28.2 68.4 27.5C68.8 27.2 69.2 27.1 69.7 27.2C70.2 27.4 70.7 27.6999 71.2 28.2999C71.8 28.9999 72.1 29.6 72.2 30C72.1 30.5 72.0001 30.9 71.6001 31.2Z" fill="black"/>
    <path d="M76.5 24C76.1 23.9 75.6 24 75 24.3L74 24.8C73.4 25.1 73 25.1 72.8 24.8C72.6 24.6 72.6 24.4 72.6 24.2C72.6 24 72.8 23.7 73.1 23.5C73.6 23.1 74.1 23 74.5 23.3L75.2 22.3C74.8 22 74.4 21.9 73.9 22C73.4 22.1 72.9 22.3 72.5 22.7C72 23.1 71.7 23.6 71.6 24.2C71.5 24.8 71.6 25.3 72 25.7C72.2 25.9 72.4 26.1 72.7 26.2C73 26.3 73.2 26.4 73.5 26.3C73.8 26.3 74.1 26.2 74.5 26L75.7 25.4C76 25.2 76.3 25.2 76.4 25.2C76.6 25.3 76.7 25.3 76.8 25.5C77 25.7 77 25.9 76.9 26.2C76.8 26.5 76.6 26.8 76.3 27C75.6 27.6 75 27.7 74.4 27.3L73.7 28.2C74.2 28.5 74.7 28.7 75.3 28.5C75.9 28.4 76.4 28.1 76.9 27.7C77.5 27.2 77.9 26.6 78 26C78.1 25.4 78 24.8 77.6 24.3C77.2 24.3 76.9 24.1 76.5 24Z" fill="black"/>
    <path d="M79.4998 18.7L78.7999 17.9L75.0999 20.9L75.6998 21.7L77.0999 20.6L80.5999 25L81.5999 24.2L78.0999 19.8L79.4998 18.7Z" fill="black"/>
    <path d="M85.7999 17.4C85.3999 17.3 84.8999 17.4 84.1999 17.6L83.0999 18.1C82.4999 18.4 82.0999 18.3 81.8999 18C81.7999 17.8 81.6999 17.6 81.7999 17.3C81.8999 17.1 81.9999 16.8 82.2999 16.6C82.7999 16.2 83.2999 16.2 83.6999 16.5L84.3998 15.6C83.9998 15.3 83.5999 15.2 83.0999 15.3C82.5999 15.4 82.0999 15.6 81.6999 15.9C81.1999 16.3 80.7999 16.8 80.6999 17.4C80.5999 18 80.6999 18.5 80.9999 18.9C81.1999 19.1 81.3999 19.3 81.6999 19.5C81.9999 19.6 82.1999 19.7 82.4999 19.7C82.7999 19.7 83.0999 19.6 83.4999 19.4L84.6999 18.9C84.9999 18.8 85.2998 18.7 85.3998 18.8C85.5998 18.9 85.6999 19 85.7999 19.1C85.9999 19.3 85.9998 19.5 85.8998 19.8C85.7998 20.1 85.5999 20.3 85.2999 20.6C84.5999 21.2 83.8998 21.2 83.3998 20.8L82.5999 21.7C83.0999 22.1 83.5999 22.2 84.1999 22.1C84.7999 22 85.2999 21.8 85.7999 21.4C86.3999 20.9 86.7999 20.4 86.9999 19.8C87.1999 19.2 86.9999 18.6 86.5999 18.1C86.4999 17.8 86.1999 17.6 85.7999 17.4Z" fill="black"/>
    <path d="M101.9 99L105.7 92.3H67.3L48 125.4H55.9L71.1 99H101.9Z" fill="#00784B"/>
    <path d="M94.2999 59.1L90.4998 52.4L71.0999 85.7H78.8998L94.2999 59.1Z" fill="#00784B"/>
    <path d="M109.7 85.7L105.8 78.9L101.8 85.7H109.7Z" fill="#00784B"/>
    <path d="M78.8999 125.4H86.4999L90.2999 118.9H82.5999L78.8999 125.4Z" fill="#00784B"/>
    <path d="M94.2 85.7L102 72.3L98.1 65.7L86.5 85.7H94.2Z" fill="#00784B"/>
    <path d="M124.7 125.4H132.7L128.7 118.5L124.7 125.4Z" fill="#00784B"/>
    <path d="M98 105.6H74.9L63.5 125.4H71.3L78.8 112.3H94.1L98 105.6Z" fill="#00784B"/>
    <path d="M121 105.3L109.4 125.4H117.1L124.9 111.9L121 105.3Z" fill="#00784B"/>
    <path d="M158.3 130.6C157.4 120.9 142.4 57.8 90.3999 26C37.9999 60.2 24.7999 119.9 23.8999 129.6C22.9999 139.3 26.6999 143.7 31.0999 145.8C35.4999 147.9 40.0999 147.5 54.5999 143.6C69.0999 139.7 90.3999 140.1 90.3999 140.1C90.3999 140.1 112.8 140.1 127.3 143.9C141.8 147.8 146.3 148.2 150.7 146.1C155.1 144 159.2 140.3 158.3 130.6ZM138.2 134.9C138 132.7 136.1 130.9 133.8 130.9C131.5 130.9 129.6 132.6 129.4 134.9H123.7C123.5 132.7 121.6 130.9 119.3 130.9C117 130.9 115.1 132.6 114.9 134.9H109.3C109.1 132.7 107.2 130.9 104.9 130.9C102.6 130.9 100.7 132.6 100.5 134.9H94.8999C94.6999 132.7 92.7999 130.9 90.4999 130.9C88.1999 130.9 86.2999 132.6 86.0999 134.9H80.4999C80.2999 132.7 78.3999 130.9 76.0999 130.9C73.7999 130.9 71.8999 132.6 71.6999 134.9H65.9999C65.7999 132.7 63.8999 130.9 61.5999 130.9C59.2999 130.9 57.3999 132.6 57.1999 134.9H51.5999C51.3999 132.7 49.4999 130.9 47.1999 130.9C44.8999 130.9 42.9999 132.6 42.7999 134.9H32.0999L37.2999 125.9C37.7999 126.1 38.3999 126.3 39.0999 126.3C41.5999 126.3 43.5999 124.3 43.5999 121.8C43.5999 120.3 42.8999 119 41.7999 118.2L44.5999 113.3C45.0999 113.5 45.6999 113.6 46.2999 113.6C48.7999 113.6 50.7999 111.6 50.7999 109.1C50.7999 107.7 50.0999 106.4 48.9999 105.6L51.7999 100.8C52.2999 101 52.8999 101.2 53.5999 101.2C56.0999 101.2 58.0999 99.2 58.0999 96.7C58.0999 95.2 57.3999 93.9 56.2999 93.1L59.1999 88.2C59.6999 88.4 60.2999 88.6 60.9999 88.6C63.4999 88.6 65.4999 86.6 65.4999 84.1C65.4999 82.6 64.7999 81.3 63.6999 80.5L66.4999 75.7C66.9999 75.9 67.5999 76.1 68.2999 76.1C70.7999 76.1 72.7999 74.1 72.7999 71.6C72.7999 70.1 72.0999 68.8 70.9999 68L73.7999 63.1C74.2999 63.3 74.8999 63.4 75.4999 63.4C77.9999 63.4 79.9999 61.4 79.9999 58.9C79.9999 57.5 79.2999 56.2 78.1999 55.4L80.9999 50.5C81.4999 50.7 82.1999 50.9 82.7999 50.9C85.2999 50.9 87.2999 48.9 87.2999 46.4C87.2999 44.9 86.5999 43.6 85.4999 42.8L90.7999 33.6L96.0999 42.7C94.9999 43.5 94.1999 44.8 94.1999 46.3C94.1999 48.8 96.1999 50.8 98.6999 50.8C99.3999 50.8 99.9999 50.6 100.6 50.4L103.4 55.3C102.3 56.1 101.6 57.4 101.6 58.9C101.6 61.4 103.6 63.4 106.1 63.4C106.8 63.4 107.4 63.3 107.9 63L110.7 67.9C109.6 68.7 108.8 70 108.8 71.5C108.8 74 110.8 76 113.3 76C114 76 114.6 75.8 115.2 75.6L118 80.4C116.8 81.2 116.1 82.5 116.1 84.1C116.1 86.6 118.1 88.6 120.6 88.6C121.3 88.6 121.9 88.4 122.5 88.2L125.3 93.1C124.2 93.9 123.4 95.2 123.4 96.7C123.4 99.2 125.4 101.2 127.9 101.2C128.6 101.2 129.2 101 129.8 100.8L132.5 105.6C131.4 106.4 130.6 107.7 130.6 109.2C130.6 111.7 132.6 113.7 135.1 113.7C135.8 113.7 136.4 113.6 137 113.3L139.8 118.2C138.6 119 137.9 120.3 137.9 121.9C137.9 124.4 139.9 126.4 142.4 126.4C143.1 126.4 143.7 126.2 144.3 126L149.5 135.1H138.2V134.9Z" fill="#00784B"/>
    <path d="M113.5 92.3H113.4L94.0999 125.4H101.8L117.2 98.7L113.5 92.3Z" fill="#00784B"/>
    <path d="M83.1 170.2V176.8H82.3V172.1H80.7V171.4C81.8 171.4 82.4 171 82.5 170.1H83.1V170.2Z" fill="black"/>
    <path d="M85.4999 175.2H86.2999C86.3999 175.9 86.7999 176.3 87.3999 176.3C88.1999 176.3 88.7999 175.5 88.9999 173.8C88.6999 174.3 88.1999 174.5 87.4999 174.6C86.1999 174.6 85.4999 173.8 85.3999 172.5C85.4999 171.1 86.1999 170.3 87.4999 170.2C88.9999 170.2 89.7999 171.2 89.7999 173.2C89.6999 175.6 88.8999 176.8 87.3999 176.9C86.1999 176.9 85.5999 176.3 85.4999 175.2ZM87.5999 173.9C88.3999 173.9 88.7999 173.4 88.7999 172.4C88.7999 171.5 88.2999 171 87.4999 171C86.6999 171 86.1999 171.5 86.1999 172.5C86.1999 173.4 86.6999 173.9 87.5999 173.9Z" fill="black"/>
    <path d="M92.2999 171.1L91.9999 172.9C92.3999 172.6 92.7999 172.5 93.1999 172.5C94.5999 172.6 95.2999 173.3 95.3999 174.6C95.2999 176 94.4999 176.8 92.9999 176.8C91.6999 176.8 90.9999 176.2 90.8999 175H91.6999C91.7999 175.8 92.2999 176.1 93.0999 176.1C93.8999 176.1 94.3999 175.5 94.4999 174.6C94.4999 173.7 93.9999 173.2 93.0999 173.1C92.5999 173.1 92.1999 173.3 91.8999 173.7H91.1999L91.6999 170.1H95.0999V170.9H92.2999V171.1Z" fill="black"/>
    <path d="M101.5 173.6C101.4 175.8 100.7 176.9 99.1999 176.9C97.6999 176.9 96.8999 175.7 96.8999 173.6C96.8999 171.4 97.6999 170.2 99.1999 170.2C100.6 170.2 101.4 171.4 101.5 173.6ZM100.6 173.6C100.6 171.9 100.1 171 99.1999 171C98.2999 171 97.7999 171.9 97.7999 173.6C97.7999 175.4 98.2999 176.2 99.1999 176.2C100.1 176.2 100.6 175.4 100.6 173.6Z" fill="black"/>
    <path d="M91.1999 153.5C91.2999 153.1 91.2999 153.2 91.1999 152.7C90.0999 152 89.4999 153.1 88.6999 153.4C88.0999 152.6 88.7999 151.6 88.7999 151.1C88.5999 150.6 88.2999 150.9 87.6999 150.9C87.3999 151.5 87.8999 152.8 87.3999 153.2C87.1999 152.9 87.3999 152.2 87.1999 151.9C86.8999 151.9 86.5999 151.9 86.3999 152C86.3999 152.7 86.1999 153.2 85.9999 153.9C85.6999 153.9 85.4999 153.8 85.2999 153.7C85.2999 153.2 85.2999 152.7 85.2999 152.3C86.2999 151.6 87.2999 151 88.1999 150.1C86.8999 149.8 86.4999 151.4 85.1999 151.5C85.1999 151.2 85.1999 150.9 85.1999 150.6C85.8999 150.3 86.4999 149.9 86.6999 149.2C86.2999 148.4 85.2999 147.6 84.3999 147.8C84.1999 148.2 84.6999 148.8 84.4999 149.6C83.7999 150.6 82.8999 151.3 82.3999 152.5C82.9999 152.4 83.4999 151.7 83.7999 151.7C83.7999 152 83.7999 152.4 83.7999 152.7C82.2999 154.3 80.6999 155.8 79.1999 157.3C78.8999 157.3 78.6999 157.3 78.4999 157.4C78.1999 157.7 78.0999 158.4 78.4999 158.7C80.3999 158.5 80.0999 156 81.8999 155.7C81.9999 156.4 81.6999 156.6 81.5999 157C81.6999 157.2 81.9999 157.2 81.8999 157.5C81.3999 158.2 80.9999 158.9 79.8999 159.1C79.8999 159.7 80.6999 159.5 81.1999 159.5C81.7999 158.9 81.9999 157.9 82.7999 157.5C82.7999 156.9 82.8999 156.3 83.5999 156.4C83.5999 157 83.3999 157.5 83.4999 158.2C83.0999 158.2 82.6999 158.1 82.6999 158.5C82.6999 158.8 83.4999 158.4 83.4999 158.7C83.2999 158.8 83.4999 159.4 83.3999 159.7C82.9999 159.9 82.3999 159.9 82.2999 160.5C82.3999 161 82.7999 161.2 83.2999 161.3C83.8999 160.3 85.2999 160 86.0999 159.3C86.1999 158.8 85.8999 157.9 86.3999 157.9L87.3999 160.4V167.5L86.5999 168.5L87.1999 169L88.3999 167.9V161.2C88.4999 161.4 89.6999 161.6 90.3999 161.7C90.8999 161.2 91.0999 160.3 91.1999 159.4C89.7999 158.2 88.9999 154.4 91.1999 153.5ZM83.5999 155.8C81.4999 156.1 82.5999 154 83.5999 153.8C83.7999 154.2 83.7999 155.3 83.5999 155.8ZM85.5999 154.4C85.4999 154.9 85.2999 155.2 84.8999 155.4C84.5999 155 85.0999 154 85.5999 154.4ZM86.4999 157.2C85.7999 157.8 85.5999 158.9 84.4999 159.2C84.5999 157.9 85.7999 157.7 85.9999 156.6C85.8999 156.4 85.3999 156.6 85.0999 156.5C85.2999 155.6 85.8999 155.1 86.2999 154.5C86.3999 154.5 86.3999 154.7 86.4999 154.7C86.5999 155.6 86.3999 156.2 86.4999 157.2ZM87.0999 154.3C87.1999 154.3 87.2999 154.3 87.3999 154.3C87.3999 154.6 87.4999 155.1 87.2999 155.3C86.8999 155.3 86.8999 154.5 87.0999 154.3ZM87.0999 157.9C86.8999 157.6 86.7999 156.5 87.1999 156.4C87.7999 156.4 87.7999 158.1 87.0999 157.9ZM89.2999 156.8C89.5999 158.1 91.0999 159.4 90.0999 160.5C89.5999 160.7 88.7999 160.6 88.4999 160.4C88.1999 158.6 88.3999 156.4 88.3999 154.5C88.7999 154 89.0999 153.4 89.8999 153.4C89.8999 154.9 88.9999 155.3 89.2999 156.8Z" fill="black"/>
    <path d="M54.3 152.1C54.8 151.5 55.4 151.1 55.9 150.5C56.9 149.5 58.2 148.4 58.6 146.8C58.2 146.3 57.7 145.9 57.7 145C57.5 145 57.3 145 57.1 145C56.9 145.3 56.4 145.6 56.4 145.9C55.9 149.1 53.6 150.7 52.7 153.6C53.5 153.5 53.9 152.6 54.3 152.1Z" fill="black"/>
    <path d="M56.9 158.2C57.5 157.3 58.4 156.7 58.9 155.6C58.5 155.4 58.2 155 57.8 154.9C57.2 155.1 57.4 156.2 56.3 155.9C56 154.2 59.4 154.4 57.8 152.8C57.4 152.8 57 153.5 56.8 152.9C56.7 152.3 57.5 152.7 57.4 152.1C56.7 151.3 54.6 151.6 55.3 153.4C52.6 155.1 49.2 156.2 46.5 158.1C47.4 158.6 48.6 158.8 49.5 159.3C50.2 158.6 51 157.8 51.8 157.1C52.6 156.4 53.4 155.5 54.5 155.4C54.2 157.3 52.6 157.8 52.1 159.4C52.4 159.5 52.6 159.8 53 159.8C53.7 159.2 53.9 157.9 54.9 157.5C55.3 158.4 54 159.3 54.5 160.4C54.2 160.5 53.6 160.2 53.7 160.6C53.4 161.5 54.5 160.9 54.6 161.4C54.2 162.4 53.7 163.4 53.3 164.5C54.4 166.2 56.4 164.2 57.6 163.6C57.6 163.2 57.7 162.6 57.5 162.3C56.3 162.3 56.3 163.6 55.1 163.6C55.1 162.5 56 162.2 56.2 161.2C56.1 160.7 55.4 160.9 55.4 160.4C55.6 159.6 55.8 158.9 56.2 158.3C56.3 157.9 56.6 158.2 56.9 158.2Z" fill="black"/>
    <path d="M75.9 150.4C75.6 149.5 75.3 148.6 74 148.7C74 149.1 74.1 149.6 73.6 149.5C73.2 149.1 73.4 148.3 72.7 148.2C71.4 149.4 70.6 146.8 69.1 147.8C69.1 149.2 70.4 149.1 70.9 150C69.9 150.9 67.9 150.8 66 150.8C65.9 151.4 66.8 151.9 67.1 152.5C69.1 152.5 70.3 151.1 72.2 151.3C69.1 155.1 65.7 158.4 62.6 162.3C61.5 162.5 61.1 164.2 61.6 165.3C62.8 165.8 63.4 163.7 63.9 162.9C65.7 160.2 68 157.5 69.7 155.4C69.9 155.5 70.1 155.6 70.3 155.7C70.2 155.9 70 156.1 70.1 156.5C70.3 156.9 70.7 157.1 71 157.5C71 157.9 70.3 157.6 70.4 158.1C70.6 158.4 71.4 158.3 71.3 158.9C70.3 160.8 68.5 161.8 67.4 163.6C67.6 163.9 67.8 164.1 68.3 164.2C69.8 162.9 70.5 160.3 72.9 160.3C72.9 160.5 72.9 160.7 72.9 160.9C72.7 161.1 72.2 161 72 161.2C72.5 162.4 71.5 163 70.2 162.8C70.2 163 70.2 163.2 70.2 163.5C70.7 163.7 71.6 163.6 72.2 163.6C72.4 163.4 72.1 162.7 72.6 162.8C72.9 162.8 72.8 163.3 72.8 163.6C73.4 163.6 74.1 163.7 74.6 163.5C74.6 163.2 74.8 163.1 74.7 162.7C74.3 162.5 73.5 162.7 73.4 162.3C73.1 160.9 74.3 161 74.4 160.1C74.2 159.7 73.5 159.9 73.3 159.5C73.3 159 74 159.3 73.9 158.7C73.8 158.4 72.9 158.8 73 158.4C73.5 157.9 74.4 157.8 75.3 157.7C75.9 156.8 75.2 155.9 74.2 155.9C73.7 156 74 156.8 73.4 156.8C73.2 156.7 73.1 156.6 73.1 156.5C73.6 155.7 74.5 155.3 75.3 154.8C75.6 154.3 74.9 153.9 74.6 153.6C74.1 153.6 73.7 154.5 73.3 153.8C73.3 153.3 74.1 153.5 74 152.8C72.5 152.3 72.3 155.3 70.8 154.5C72 152.4 73.7 151.1 75.9 150.4ZM73 158.5C73 158.7 73.1 158.7 73.1 158.9C72.7 159.1 72.3 159.2 71.9 159.3C71.7 159.3 71.8 158.9 71.8 158.7C72.5 159 72.4 158.4 73 158.5ZM72.4 158C72.1 158 71.9 158 71.7 157.9C71.8 157.3 72.7 156.6 73 157.2C72.8 157.4 72.1 157.3 72.4 158ZM73.2 154.2C73 154.8 72.5 155.2 72 155.5C71.5 154.9 72.5 154.2 73.2 154.2ZM70.9 156C71.3 156 71.6 156 72 156C71.8 156.3 71.6 156.7 71 156.6C71.1 156.2 70.8 156.3 70.9 156Z" fill="black"/>
    <path d="M69.9 159.6C70.1 158.9 69.9 158 69.5 157.6C68.9 158.2 68.2 158.6 67.8 159.4C68.3 159.7 69.4 159.7 69.9 159.6Z" fill="black"/>
    <path d="M133.6 154.7C134.3 154.1 135.9 151.9 135.7 150.8C135.6 150.3 134.9 149.8 134.6 149.8C133.2 149.6 133.1 151.7 132 151.1C132.5 150.4 133.2 149.9 132.9 148.5C132.4 147.1 129.5 147.8 130.8 149.3C131.2 149.2 130.9 148.5 131.4 148.5C132.4 150.2 130.7 151.9 128.7 151.7C128.6 152 128.8 152.5 128.6 152.6C127.5 152.1 129.1 149.2 127.2 149.3C126.7 149.5 126.7 150.2 126.7 150.9C128.2 150.7 127.8 153.5 127.5 154.3C126.9 153.9 127.3 152.5 126.1 152.6C125.7 153.1 126.3 153.4 126.4 154.1C126.6 155.2 125.8 156.7 126.7 157.2C127.7 157.3 127.2 155.8 127.5 155.2C127.9 155.1 127.6 155.7 128.1 155.5C128.4 155.3 128.3 154.7 128.9 154.8C128.9 157.1 126.7 157.4 125.8 159C126.5 158.5 127.6 157.9 128.7 157C129.7 156.2 131.5 153.8 132.1 155.6C129 156.5 127.6 159.2 124.9 160.5C124.7 160.1 125.6 159.8 125 159.7C123.9 160.1 123.5 161.1 122.7 161.6C123.4 163.3 124.6 161.8 125.6 160.9C126.9 159.7 127.9 158.7 129.2 157.6C129.7 157.2 130.8 156 131.3 157.1C130.8 157.8 129.9 158.1 129.6 158.9C129.8 159.2 130 159.4 130.2 159.7C130 161.2 128.2 161.1 127.1 161.7C126.9 162.2 126.8 162.6 126.9 163.3C128.5 163.1 131.6 163.6 132.6 162.4C132.7 161.7 132 161.9 131.9 161.4C132.4 161 132.8 160 132.1 159.5C131.8 159.4 131.2 159.6 131.1 159.4C131 157.5 133.6 158.4 133.4 156.5C133.6 156.3 132.5 156.1 132.5 155.7C132.3 155.3 133.2 155.1 133.6 154.7ZM127.5 162.4C127.9 161.5 129.9 161.6 130.8 161.5C129.9 161.9 128.5 162.8 127.5 162.4ZM128.7 153.9C128.5 153.7 128.7 153.4 128.8 153.1C129.1 153 129 153.3 129.3 153.3C129.2 153.7 129 153.9 128.7 153.9ZM129.4 154.9C129.1 154.9 129.1 154.4 129.5 154.4C129.5 154.6 129.4 154.7 129.4 154.9ZM129.8 155.4C129.5 155.4 129.6 155.1 129.7 154.8C130.1 154.7 130 155.4 129.8 155.4ZM129.2 152.7C129.3 152.3 129.4 151.9 130 152C129.9 152.4 129.6 152.6 129.2 152.7ZM130.5 153.8C129.8 153.8 130.5 153.3 130.7 153.1C130.9 153.6 130.4 153.4 130.5 153.8ZM131 152.7C130.6 152.7 130.5 153 130.2 153C130 152.5 130.8 152.6 130.4 152.3C130.4 152.1 130.8 152.3 131 152.2C131 152.4 131 152.5 131 152.7ZM131.1 154.3C130.9 153.3 132.4 153.1 133.1 152.6C132.6 153.4 131.9 153.9 131.1 154.3Z" fill="black"/>
    <path d="M102.7 149.3C102.2 147.5 101.1 148.6 99.1999 148.5C99.0999 148.8 98.8999 149 98.9999 149.4C99.9999 150.4 101.4 149.2 102.7 149.3Z" fill="black"/>
    <path d="M104 149.9C102.9 149.7 102 151.6 101.2 151.7C101.2 151.4 101.3 151 101.1 150.8C100.8 150.7 100.5 150.5 100 150.6C100 151.2 100.2 151.8 100.1 152.5C98.7001 153.4 97.6 154.6 96.3 155.6C96.3 154.7 96.7 154.1 96.7 153.1C95.7 154.3 95.2 156.1 94.3 157.4C95.4 159 96.9 156.7 97.9 155.7C98.9 154.6 99.6 153.5 100.3 153.3C100.2 153.6 100.2 154.1 100.2 154.5C100 154.7 99.5 154.6 99.4 155C99.5 155.4 100.1 154.7 100.2 155C100.2 155.3 100.1 155.6 100 155.8C99.4 156 98.6001 156 98.1001 156.3C98.1001 156.7 98.1 157 98.2 157.3C99.2 157.5 99.5 156.5 100 156.5C100.1 156.9 99.6 157.3 100.2 157.3C100.3 156.6 101.8 155 102 156.1C102.1 156.5 100.9 156.8 100.9 157.4C102 157 103.3 156.6 104 155.8C103.7 155.2 103.4 154.5 102.7 154.3C102.3 154.4 102.1 154.8 101.9 155.2C101.6 155.1 101.1 155.3 101 155.1C101.1 154.8 101.2 154.6 101.1 154.2C101.8 153.4 104.9 152.4 105 151.2C104.9 150.8 104.4 150 104 149.9ZM101.1 153.7C100.6 152.2 102.2 151.2 103.3 151.3C102.7 152.2 101.8 152.8 101.1 153.7Z" fill="black"/>
    <path d="M102.4 161.4C102.2 162.8 100.9 162.9 99.8 163.3C99 161.1 101.4 160.2 102.6 159.3C102.7 157.1 101.1 158.3 99.8 158.4C99.5 158.2 100 157.9 99.6 157.8C99 159 95.7 160.4 96.9 161.9C97.6 161.5 98.3 160.1 99 161.6C99 162.1 98.1 161.7 98.2 162.4C99 162.4 98.6 163.6 98.8 164.2C100.6 164.6 102.1 163.1 103.4 162.2C103.4 161.6 103.1 161.3 102.4 161.4ZM98.7 160.5C98.7 160.2 98.6 159.7 98.8 159.5C98.9 159.5 99 159.5 99.1 159.5C99.3 159.8 99.4 160.7 98.7 160.5ZM99.5 158.9C100.3 159.5 100.6 158.8 101.3 158.6C101.2 159.2 100.9 160.4 100 160.5C100 160.2 100.1 159.9 100.2 159.6C100.2 159.2 99.5 159.4 99.5 158.9Z" fill="black"/>
    <path d="M113.4 160.6C113.9 159.7 114.5 158.9 114.8 157.8C115.9 157.1 116.7 156.1 117 154.7C118.2 154.1 119.6 151.7 118.1 150.4C118.5 152.9 117 154 115.8 154.5C115.8 152.8 116.9 150 115.6 149C115.5 149 115.5 149 115.4 149C114.7 151.3 114 153.6 113.3 155.9C111.8 156.6 109.8 156.8 108.7 157.8C109 159.1 111.5 158.1 112.6 158.5C112.6 160.4 110.7 160.9 110.9 162.7C111 162.7 111.1 162.7 111.1 162.8C112.3 162.6 112.5 161.3 113.4 160.8C114.7 161 116.4 160.7 117.1 161.5C116.9 162.2 116.2 162.3 116 162.9C117.1 162.6 118.1 162.2 118.8 161.4C118.2 159.5 115.2 160.6 113.4 160.6Z" fill="black"/>
    </svg>
    